<svg width="16" height="16" viewBox="0 0 16 16" fill="none" xmlns="http://www.w3.org/2000/svg">
<path d="M9.49992 12.0016C9.22308 12.0016 9 11.7785 9 11.5017V5.99992C9 5.72308 9.22308 5.5 9.49992 5.5C9.77675 5.5 9.99983 5.72308 9.99983 5.99992V11.499C9.99983 11.7758 9.77675 12.0016 9.49992 12.0016Z" fill="#2B4096"/>
<path d="M6.49992 12.0016C6.22308 12.0016 6 11.7785 6 11.5017V5.99992C6 5.72308 6.22308 5.5 6.49992 5.5C6.77675 5.5 6.99983 5.72308 6.99983 5.99992V11.499C6.99983 11.7758 6.77675 12.0016 6.49992 12.0016Z" fill="#2B4096"/>
<path d="M14.5004 3.49958H12.0008V2.49975C12.0008 1.67193 11.3343 1 10.5118 1H5.49924C4.67143 1 3.9995 1.67193 3.9995 2.49975V3.49958H1.49992C1.22308 3.49958 1 3.72266 1 3.9995C1 4.27633 1.22308 4.49941 1.49992 4.49941H14.5004C14.7773 4.49941 15.0003 4.27633 15.0003 3.9995C15.0003 3.72266 14.7773 3.49958 14.5004 3.49958ZM4.99933 2.49975C4.99933 2.2256 5.2251 1.99983 5.49924 1.99983H10.5118C10.786 1.99983 11.001 2.22023 11.001 2.49975V3.49958H4.99933V2.49975Z" fill="#2B4096"/>
<path d="M11.4986 14.9987H4.49975C3.67193 14.9987 3 14.3267 3 13.4989V5.9921C3 5.71527 3.22308 5.49219 3.49992 5.49219C3.77675 5.49219 3.99983 5.71527 3.99983 5.9921V13.4989C3.99983 13.7757 4.2256 13.9988 4.49975 13.9988H11.5013C11.7781 13.9988 12.0012 13.7757 12.0012 13.4989V6.01092C12.0012 5.73408 12.2243 5.511 12.5011 5.511C12.7779 5.511 13.001 5.73408 13.001 6.01092V13.4989C12.9983 14.324 12.3264 14.9987 11.4986 14.9987Z" fill="#2B4096"/>
</svg>
