<svg width="16" height="16" viewBox="0 0 16 16" fill="none" xmlns="http://www.w3.org/2000/svg">
<path fill-rule="evenodd" clip-rule="evenodd" d="M11.7355 8L7.58867 2.70156C7.52461 2.62031 7.58242 2.5 7.68711 2.5H8.89492C8.97148 2.5 9.04492 2.53594 9.0918 2.59531L13.0809 7.69219C13.223 7.87344 13.223 8.12812 13.0809 8.30937L9.0918 13.4047C9.04492 13.4656 8.97148 13.5 8.89492 13.5H7.68711C7.58242 13.5 7.52461 13.3797 7.58867 13.2984L11.7355 8ZM6.98555 8L2.83867 2.70156C2.77461 2.62031 2.83242 2.5 2.93711 2.5H4.14492C4.22148 2.5 4.29492 2.53594 4.3418 2.59531L8.33086 7.69219C8.47305 7.87344 8.47305 8.12812 8.33086 8.30937L4.3418 13.4047C4.29492 13.4656 4.22148 13.5 4.14492 13.5H2.93711C2.83242 13.5 2.77461 13.3797 2.83867 13.2984L6.98555 8Z" fill="#0B0B0B" fill-opacity="0.45"/>
</svg>
