<svg width="32" height="32" viewBox="0 0 32 32" fill="none" xmlns="http://www.w3.org/2000/svg">
<g clip-path="url(#clip0_649_126721)">
<rect opacity="0.01" x="8" y="8" width="16" height="16" fill="#E6E6E6"/>
<circle cx="16" cy="16" r="16" fill="#E6E8F0"/>
<path d="M16 20.5C16.8284 20.5 17.5 21.1716 17.5 22C17.5 22.8284 16.8284 23.5 16 23.5C15.1716 23.5 14.5 22.8284 14.5 22C14.5 21.1716 15.1716 20.5 16 20.5ZM16 14.5C16.8284 14.5 17.5 15.1716 17.5 16C17.5 16.8284 16.8284 17.5 16 17.5C15.1716 17.5 14.5 16.8284 14.5 16C14.5 15.1716 15.1716 14.5 16 14.5ZM16 8.5C16.8284 8.5 17.5 9.17157 17.5 10C17.5 10.8284 16.8284 11.5 16 11.5C15.1716 11.5 14.5 10.8284 14.5 10C14.5 9.17157 15.1716 8.5 16 8.5Z" fill="#2B4096"/>
</g>
<defs>
<clipPath id="clip0_649_126721">
<rect width="32" height="32" fill="white"/>
</clipPath>
</defs>
</svg>
