<svg width="16" height="16" viewBox="0 0 16 16" fill="none" xmlns="http://www.w3.org/2000/svg">
<g clip-path="url(#clip0_115682_402)">
<path d="M8 13C8.62132 13 9.125 13.5037 9.125 14.125C9.125 14.7463 8.62132 15.25 8 15.25C7.37868 15.25 6.875 14.7463 6.875 14.125C6.875 13.5037 7.37868 13 8 13ZM8 6.85156C8.62132 6.85156 9.125 7.35524 9.125 7.97656C9.125 8.59788 8.62132 9.10156 8 9.10156C7.37868 9.10156 6.875 8.59788 6.875 7.97656C6.875 7.35524 7.37868 6.85156 8 6.85156ZM8 1C8.62132 1 9.125 1.50368 9.125 2.125C9.125 2.74632 8.62132 3.25 8 3.25C7.37868 3.25 6.875 2.74632 6.875 2.125C6.875 1.50368 7.37868 1 8 1Z" fill="#2B4096"/>
</g>
<defs>
<clipPath id="clip0_115682_402">
<rect width="16" height="16" fill="white"/>
</clipPath>
</defs>
</svg>
