<svg width="16" height="16" viewBox="0 0 16 16" fill="none" xmlns="http://www.w3.org/2000/svg">
<path d="M11.8553 5.2351L13.1163 4.96309C13.7731 6.00343 14.1213 7.20881 14.1203 8.43917C14.1204 9.78802 13.7048 11.1041 12.93 12.2082C12.1551 13.3123 11.0588 14.1508 9.79028 14.6093C8.52176 15.0678 7.14273 15.1242 5.84101 14.7707C4.5393 14.4173 3.37819 13.6711 2.51583 12.6339C1.65347 11.5968 1.13179 10.319 1.02184 8.9746C0.911884 7.63024 1.21901 6.28466 1.90138 5.12114C2.58375 3.95762 3.60819 3.03273 4.83517 2.47244C6.06215 1.91215 7.43201 1.74369 8.75818 1.99002L9.03119 1L11.4432 3.44706L8.11817 4.31208L8.43917 3.14705C8.1485 3.09681 7.85413 3.07105 7.55915 3.07005C6.13558 3.07164 4.7708 3.63799 3.76437 4.6448C2.75794 5.6516 2.19209 7.0166 2.19103 8.44017C2.19288 9.86322 2.75908 11.2274 3.76543 12.2336C4.77177 13.2398 6.1361 13.8057 7.55915 13.8073C8.98238 13.8057 10.3469 13.2396 11.3532 12.2332C12.3596 11.2269 12.9257 9.8624 12.9273 8.43917C12.9268 7.28315 12.5506 6.15861 11.8553 5.2351ZM8.15517 6.05311V8.19216L10.3662 10.4032C10.478 10.515 10.5408 10.6666 10.5408 10.8247C10.5408 10.9828 10.478 11.1344 10.3662 11.2462C10.3109 11.3016 10.2452 11.3455 10.1728 11.3755C10.1005 11.4054 10.023 11.4208 9.94471 11.4208C9.78661 11.4208 9.63499 11.358 9.5232 11.2462L6.96314 8.68617V6.05311C6.96314 5.89504 7.02593 5.74344 7.13771 5.63167C7.24948 5.5199 7.40108 5.4571 7.55915 5.4571C7.71723 5.4571 7.86882 5.5199 7.9806 5.63167C8.09237 5.74344 8.15517 5.89504 8.15517 6.05311Z" fill="#0B0B0B" fill-opacity="0.65"/>
</svg>
